<svg xmlns="http://www.w3.org/2000/svg" viewBox="0 0 26 26.05"><g data-name="Layer 2"><g data-name="Layer 1"><path d="M5.23 0h15.59A5.24 5.24 0 0 1 26 5.23v15.59a5.22 5.22 0 0 1-5.18 5.23H5.23A5.23 5.23 0 0 1 0 20.82V5.23A5.25 5.25 0 0 1 5.23 0" style="fill:#1aa2f8;fill-rule:evenodd"/><path d="M13.16 10.55a3.64 3.64 0 0 1 6.24-3.17 9.2 9.2 0 0 0 2.15-1 3.93 3.93 0 0 1-1.6 2 7.1 7.1 0 0 0 2-.55 3.8 3.8 0 0 1-1.7 1.69c.6 8.3-8.34 13.35-15.59 9.22 0 0 3.58.18 5.09-1.56a3.47 3.47 0 0 1-3.3-2.47 2.2 2.2 0 0 0 1.65-.1 3.58 3.58 0 0 1-2.8-3.48 2.28 2.28 0 0 0 1.7.47 3.52 3.52 0 0 1-1.22-4.77s3 3.85 7.38 3.72" style="fill-rule:evenodd;fill:#fff"/></g></g></svg>