<svg xmlns="http://www.w3.org/2000/svg" width="100" height="100"><g fill="none" fill-rule="evenodd"><circle cx="50" cy="50" r="50"/><path fill="#FFF3E3" fill-opacity=".8" stroke="#000" d="M49.415 20.675s-8.461 8.447-26.37 9.01l.423 22.385c.14 11.967 7.332 22.808 18.332 27.454 2.256.844 4.794 1.83 7.756 2.393 2.961-.704 5.358-1.549 7.756-2.393 10.858-4.646 18.05-15.487 18.332-27.454l.423-22.385c-18.191-.704-26.652-9.01-26.652-9.01Z"/><path fill="#FF6F61" fill-opacity=".5" d="M28.262 67.838C40.531 54.745 52.8 41.511 64.786 28.137c-10.436-2.675-15.371-7.462-15.371-7.462s-8.461 8.447-26.37 9.01l.423 22.385a28.43 28.43 0 0 0 4.794 15.768"/><path fill="#FF6F61" stroke="#000" d="M49.838 24.054s8.12 8.306 26.173 9.01l.213-5.49c-18.197-.704-26.386-9.01-26.386-9.01s-8.597 8.446-26.793 9.01l.143 5.49c18.053-.704 26.65-9.01 26.65-9.01ZM49.415 80.931s-7.897-18.724-24.396-19.85c2.68 8.024 8.743 14.923 16.78 18.302 2.257.844 4.795 1.83 7.757 2.393 2.961-.704 5.358-1.549 7.756-2.393 8.038-3.38 14.101-10.278 16.78-18.302-16.78 1.267-24.677 19.85-24.677 19.85Z"/><path fill="#FF6F61" stroke="#000" d="m46.312 61.644-9.87-9.01c-.847-.705-.847-1.972-.142-2.676.705-.844 1.833-.844 2.68-.14l7.05 6.335 15.371-17.598c.705-.845 1.833-.845 2.538-.141.847.704.847 1.971.141 2.675z"/></g></svg>