<svg xmlns="http://www.w3.org/2000/svg" viewBox="0 0 26 26"><g data-name="Layer 2"><g data-name="Layer 1"><path d="M5.23 0h15.54A5.23 5.23 0 0 1 26 5.23v15.54A5.23 5.23 0 0 1 20.77 26H5.23A5.23 5.23 0 0 1 0 20.77V5.23A5.23 5.23 0 0 1 5.23 0" style="fill:#0b66c3;fill-rule:evenodd"/><path d="M5.81 10.39h2.91v9.75H5.81Zm1.44-4.94A1.76 1.76 0 1 1 5.53 7.2a1.72 1.72 0 0 1 1.72-1.75m3.19 4.94h2.87v1.36a3.32 3.32 0 0 1 2.76-1.47h.78a3.32 3.32 0 0 1 3.3 3.3v6.56h-2.87v-5.27a1.9 1.9 0 0 0-1.9-2 2 2 0 0 0-2.07 2v5.27h-2.87Z" style="fill-rule:evenodd;fill:#fff"/></g></g></svg>