<svg xmlns="http://www.w3.org/2000/svg" width="100" height="100"><g fill="none" fill-rule="evenodd"><circle cx="50" cy="50" r="50"/><path fill="#FF6F61" fill-opacity=".5" fill-rule="nonzero" stroke="#000001" d="M49.84 24.986a7.13 7.13 0 0 1 7.24 6.998v8.705H42.49v-8.606a7.383 7.383 0 0 1 7.35-7.097Zm13.643 16.31v-9.72c-.145-7.343-6.2-13.186-13.543-13.07-7.34-.11-13.392 5.73-13.543 13.07v9.72a10.74 10.74 0 0 0-7.714 10.226V71.17a10.943 10.943 0 0 0 11.174 10.744h20.375c6.036.104 11.016-4.698 11.13-10.733V51.52a11.22 11.22 0 0 0-7.879-10.225Z"/><path fill="#FFF2E3" d="M41.918 41.494v-9.565a7.97 7.97 0 0 1 7.36-7.438v-5.389a12.474 12.474 0 0 0-12.385 12.562l-.199 10.315c-4.198 1.355-7.13 4.121-7.13 8.672v18.734a10.314 10.314 0 0 0 10.36 10.325H49.4V41.494z"/><path fill="#FFF2E3" fill-rule="nonzero" d="M59.957 81.352H40.011a10.68 10.68 0 0 1-10.909-10.458V51.71c.115-5.895 4.981-10.584 10.876-10.48h19.979c5.893-.104 10.757 4.587 10.865 10.48v19.185c-.185 5.856-5.006 10.497-10.865 10.458"/><path fill="#FF6F61" d="M59.957 41.141H40.276a10.766 10.766 0 0 0-11.174 11.02v19.042a9.5 9.5 0 0 0 .959 4.22c9.807-11.295 19.769-23.152 29.896-34.282"/><path fill="#FF6F61" stroke="#231F20" d="M54.789 67.49a4.75 4.75 0 0 0-9.477 0A4.53 4.53 0 0 0 48 71.466v4.562h4.242v-4.562a4.62 4.62 0 0 0 2.546-3.978Z"/></g></svg>