<svg xmlns="http://www.w3.org/2000/svg" viewBox="0 0 26 26"><defs><style>.cls-2{fill:#fff}</style></defs><g id="Layer_2" data-name="Layer 2"><g id="Layer_1-2" data-name="Layer 1"><path d="M5.23 0h15.54A5.23 5.23 0 0 1 26 5.23v15.54A5.23 5.23 0 0 1 20.77 26H5.23A5.23 5.23 0 0 1 0 20.77V5.23A5.23 5.23 0 0 1 5.23 0" style="fill-rule:evenodd"/><path d="M8.7 7.4A5.6 5.6 0 1 1 3.14 13 5.58 5.58 0 0 1 8.7 7.4M14.78 13c.05-.54.08-1.09.16-1.63a6.8 6.8 0 0 1 .75-2.23 3.1 3.1 0 0 1 1-1.16 1.62 1.62 0 0 1 2 .17 3.9 3.9 0 0 1 1 1.31 6.5 6.5 0 0 1 .5 1.48 9.3 9.3 0 0 1 .18 2.88c0 .41-.09.82-.18 1.22a9 9 0 0 1-.35 1.13 4.1 4.1 0 0 1-.84 1.38 2.15 2.15 0 0 1-.78.59 1.52 1.52 0 0 1-1.5-.14 3 3 0 0 1-1-1.14 6.6 6.6 0 0 1-.63-1.62 9.4 9.4 0 0 1-.28-2.24ZM20.9 12.92c0-.58 0-1.16.08-1.73a10.4 10.4 0 0 1 .31-1.92 3.5 3.5 0 0 1 .3-.75c.16-.33.41-.32.6 0a2.9 2.9 0 0 1 .31.8 15.8 15.8 0 0 1 .35 4.17c0 .61-.05 1.22-.11 1.84a8 8 0 0 1-.3 1.59 2.1 2.1 0 0 1-.32.68c-.16.18-.31.18-.46 0a1.7 1.7 0 0 1-.32-.68 9.4 9.4 0 0 1-.34-1.6 21 21 0 0 1-.1-2.4" class="cls-2"/></g></g></svg>