<svg xmlns="http://www.w3.org/2000/svg" width="100" height="100"><g fill="none" fill-rule="evenodd"><path fill="#F2685B" stroke="#231F20" d="M25.601 34.26a.236.236 0 0 1-.067-.449L60.532 22.18a3.133 3.133 0 0 1 3.896 2.987v10.318z"/><path fill="#F2685B" stroke="#231F20" d="m29.374 35.9 36.525-8.556a3.11 3.11 0 0 1 3.75 3.121V40.65z"/><path d="M66.202 77.444H27.41a9.33 9.33 0 0 1-9.24-9.376V43.03a9.33 9.33 0 0 1 9.24-9.375h38.793a9.33 9.33 0 0 1 9.23 9.375v25.04a9.33 9.33 0 0 1-9.23 9.375"/><path fill="#FFF2E3" fill-rule="nonzero" stroke="#231F20" d="M66.202 77.444H27.41a9.33 9.33 0 0 1-9.24-9.376V43.03a9.33 9.33 0 0 1 9.24-9.375h38.793a9.33 9.33 0 0 1 9.23 9.375v25.04a9.33 9.33 0 0 1-9.23 9.375Z"/><path fill="#F2685B" d="M65.82 77.017H27.79a9.16 9.16 0 0 1-9.06-9.196V43.276a9.15 9.15 0 0 1 9.06-9.184h38.03a9.15 9.15 0 0 1 9.05 9.184v24.545a9.15 9.15 0 0 1-9.05 9.196" opacity=".5"/><path fill="#FFF2E3" d="M71.592 36.102a9.66 9.66 0 0 1 3.244 7.22v24.151a9.297 9.297 0 0 1-8.982 9.454H27.308a8.82 8.82 0 0 1-6.883-3.368"/><path d="M76.105 62.106h-5.232a5.423 5.423 0 0 1-5.378-5.434v-.685a5.41 5.41 0 0 1 5.378-5.423h5.232a5.41 5.41 0 0 1 5.379 5.423v.685a5.423 5.423 0 0 1-5.379 5.434"/><path fill="#F1695C" fill-rule="nonzero" stroke="#000001" d="M76.105 62.106h-5.232a5.423 5.423 0 0 1-5.378-5.434v-.685a5.41 5.41 0 0 1 5.378-5.423h5.232a5.41 5.41 0 0 1 5.379 5.423v.685a5.423 5.423 0 0 1-5.379 5.434Z"/><circle cx="50" cy="50" r="50"/></g></svg>