<svg xmlns="http://www.w3.org/2000/svg" viewBox="0 0 26 26"><defs><style>.cls-1{fill:#fe0000;fill-rule:evenodd}</style></defs><g id="Layer_2" data-name="Layer 2"><g id="Layer_1-2" data-name="Layer 1"><path d="M5.23 0h15.59A5.21 5.21 0 0 1 26 5.18v15.59A5.22 5.22 0 0 1 20.82 26H5.23A5.23 5.23 0 0 1 0 20.77V5.18A5.22 5.22 0 0 1 5.23 0" class="cls-1"/><path d="M8 7.24c1.63-.13 3.56-.2 5-.2 1.47 0 3.36.07 5 .2 2 .16 3 .49 3.21 2.41A24.6 24.6 0 0 1 21.4 13a24 24 0 0 1-.19 3.32C21 18.26 20 18.55 18 18.72c-1.66.16-3.55.19-5 .19-1.46 0-3.39 0-5-.19-1.92-.17-2.93-.46-3.19-2.42a30 30 0 0 1-.17-3.3 31 31 0 0 1 .17-3.33C5.07 7.73 6.08 7.4 8 7.24" style="fill-rule:evenodd;fill:#fff"/><path d="m11.33 10.47 4.37 2.51-4.37 2.54z" class="cls-1"/></g></g></svg>