<svg xmlns="http://www.w3.org/2000/svg" viewBox="0 0 26 26.05"><defs><linearGradient id="a" x1="13" x2="13" y2="26.05" gradientUnits="userSpaceOnUse"><stop offset="0" stop-color="#19aeff"/><stop offset="1" stop-color="#0065e7"/></linearGradient></defs><g data-name="Layer 2"><g data-name="Layer 1"><path d="M5.23 0h15.54A5.25 5.25 0 0 1 26 5.23v15.59a5.23 5.23 0 0 1-5.23 5.23H5.23A5.23 5.23 0 0 1 0 20.82V5.23A5.25 5.25 0 0 1 5.23 0" style="fill-rule:evenodd;fill:url(#a)"/><path d="M10.2 22.42h3.51v-8.1h2.59l.52-3.27h-3.11V8.58a1.58 1.58 0 0 1 1.71-1.44h1.52V4.43l-2.71-.12c-2.59-.16-4 1.88-4 4.31v2.43H7.25v3.27h2.95Z" style="fill-rule:evenodd;fill:#fff"/></g></g></svg>