<svg xmlns="http://www.w3.org/2000/svg" viewBox="0 0 26 26.05"><defs><linearGradient id="a" x1="-132.6" x2="-104.41" y1="-47.98" y2="-22.6" gradientTransform="translate(114.31 43.2) scale(0.85)" gradientUnits="userSpaceOnUse"><stop offset="0" stop-color="#0496fb"/><stop offset=".14" stop-color="#3f72ff"/><stop offset=".28" stop-color="#784aff"/><stop offset=".42" stop-color="#b038ee"/><stop offset=".57" stop-color="#cd40be"/><stop offset=".72" stop-color="#ff415a"/><stop offset=".86" stop-color="#f7941e"/><stop offset=".98" stop-color="#ffe800"/></linearGradient></defs><g data-name="Layer 2"><g data-name="Layer 1"><path d="M5.23 0h15.54A5.25 5.25 0 0 1 26 5.23v15.59a5.23 5.23 0 0 1-5.23 5.23H5.23A5.23 5.23 0 0 1 0 20.82V5.23A5.25 5.25 0 0 1 5.23 0" style="fill-rule:evenodd;fill:url(#a)"/><path d="M9.08 4.53h7.84a4.61 4.61 0 0 1 4.59 4.59v7.8a4.62 4.62 0 0 1-4.59 4.6H9.08a4.62 4.62 0 0 1-4.59-4.6v-7.8a4.61 4.61 0 0 1 4.59-4.59m8.49 3a1 1 0 0 1 1 1 1 1 0 0 1-1 1 1 1 0 0 1-1-1 1 1 0 0 1 1-1M13 8.39A4.68 4.68 0 0 1 17.65 13 4.66 4.66 0 0 1 13 17.66 4.63 4.63 0 0 1 8.39 13 4.64 4.64 0 0 1 13 8.39M13 10a3.07 3.07 0 0 1 3.05 3A3.08 3.08 0 0 1 13 16.11 3.08 3.08 0 0 1 9.93 13 3.07 3.07 0 0 1 13 10M9.12 6h7.76a3.17 3.17 0 0 1 3.17 3.17v7.72a3.17 3.17 0 0 1-3.17 3.17H9.12A3.17 3.17 0 0 1 6 16.88V9.16A3.17 3.17 0 0 1 9.12 6" style="fill-rule:evenodd;fill:#fff"/></g></g></svg>