<svg xmlns="http://www.w3.org/2000/svg" width="18" height="18" fill="none"><path d="M0 0h18v18H0z"/><path fill="#3B3B3B" fill-rule="evenodd" d="M2.978 4.945v2.023A2.281 2.281 0 0 1 4.25 9.001a2.25 2.25 0 0 1-1.294 2.03L2.978 13H15v-1.977a2.253 2.253 0 0 1-1.253-2.023c0-.868.49-1.642 1.275-2.02L15 6.977V4.945H2.98ZM15 14.001H2.98c-.552 0-1-.449-1-1v-1.968c0-.395.217-.752.553-.909a1.23 1.23 0 0 0 .718-1.123c0-.485-.275-.915-.72-1.124a.996.996 0 0 1-.551-.909V4.945a1 1 0 0 1 1-1h12.02a1 1 0 0 1 1 1v2.032a.997.997 0 0 1-.545.906 1.232 1.232 0 0 0-.708 1.118c0 .48.271.91.71 1.118a.997.997 0 0 1 .543.905v1.977c0 .551-.447 1-1 1Z" clip-rule="evenodd"/><path fill="#3B3B3B" fill-rule="evenodd" d="M6.649 7.31a.365.365 0 1 0 .002.73.365.365 0 0 0-.002-.73m0 1.733a1.366 1.366 0 0 1 0-2.73 1.366 1.366 0 0 1 0 2.73M11.35 9.948a.365.365 0 1 0 0 .73.365.365 0 0 0 0-.73m0 1.73a1.366 1.366 0 0 1-1.365-1.365 1.366 1.366 0 0 1 2.73 0c0 .753-.612 1.365-1.365 1.365M7.213 11.285a.502.502 0 0 1-.354-.854l3.58-3.578a.5.5 0 0 1 .706.707l-3.578 3.58a.502.502 0 0 1-.354.145" clip-rule="evenodd"/></svg>